# xmcd
# 
# Track frame offsets:
#     150
#     22171
#     36556
#     49841
#     62823
#     78665
#     92591
#     107099
#     120569
#     132940
#     145855
#     160289
#     172552
#     184390
#     198293
#     211844
#     224782
#     238294
# 
# Disc length: 3381
# 
# Revision: 1
# Processed by: cddbd v1.5.2PL0 Copyright (c) Steve Scherf et al.
# Submitted via: BonkEnc v1.0.6
# 
DISCID=0f0d3312
DTITLE=Muddy Waters - Unique
DYEAR=0
DGENRE=Blues
TTITLE0=I'm your Hoochie coochie man
TTITLE1=Stone
TTITLE2=Louisianna Blues
TTITLE3=I just wanna make love to you
TTITLE4=Lonesome Day
TTITLE5=Mad Love
TTITLE6=Country Boy
TTITLE7=All night long
TTITLE8=Howling Wolf
TTITLE9=Appealing Blues
TTITLE10=Early morning blues
TTITLE11=Long distance call
TTITLE12=Gypsy Woman
TTITLE13=Sad letter Blues
TTITLE14=She moves me
TTITLE15=Stuff you gotta watch
TTITLE16=Walking Blues
TTITLE17=They call me Muddy Waters
EXTD=
EXTT0=
EXTT1=
EXTT2=
EXTT3=
EXTT4=
EXTT5=
EXTT6=
EXTT7=
EXTT8=
EXTT9=
EXTT10=
EXTT11=
EXTT12=
EXTT13=
EXTT14=
EXTT15=
EXTT16=
EXTT17=
PLAYORDER=
